<?xml version="1.0" encoding="UTF-8"?>
<svg xmlns="http://www.w3.org/2000/svg" version="1.1" viewBox="0 0 344.8 130.6">
  <defs>
    <style>
      .cls-1 {
        fill: #c52127;
      }

      .cls-2 {
        fill: #c71d23;
      }
    </style>
  </defs>
  <!-- Generator: Adobe Illustrator 28.7.1, SVG Export Plug-In . SVG Version: 1.2.0 Build 142)  -->
  <g>
    <g id="Capa_1">
      <g>
        <g>
          <path class="cls-2" d="M188.9,24.1c-3.1-1.9-6.2-3.9-8.4-6.4-2.3-2.5-3.8-5.4-3.8-9s0-.7,0-1.1c-2.1,1.1-3.9,2.4-5.1,3.7-1.4,1.6-2.2,3.4-2.2,5.4s.7,4.1,2.2,6.7c1.5,2.5,3.8,5.4,7.1,8.7h0s0,0,0,0c4.4,5,6.4,10.7,6.4,16.4s-2.9,13.8-7.5,18.9c-4.2,4.6-9.9,7.8-16.3,8.4,3.8,1.1,7.6,1.7,11.4,1.7,6.7,0,13.3-1.8,19.4-6,3.4-2.3,6.1-4.7,8.1-7.5,2-2.8,3.3-6,4-10.1.2-1.4.4-2.8.4-4.2,0-4-1-7.9-2.9-11.7-3.4-6.7-6.7-10.2-12.8-13.8Z"/>
          <path class="cls-2" d="M137.7,37.7c.6.2,1.3.4,2.3.4h.4c1.1,0,1.9-.5,2.5-1.2.6-.7,1.1-1.7,1.4-2.9.7-2.4.7-5.3,1-7.4.8-7,2.8-13.1,6.3-17.9-3,2-5.7,4.3-8,6.9-3.4,3.8-6.1,8.3-7.5,13.8-.3,1.2-.7,2.8-.7,4.2s.1,1.8.5,2.5c.3.7.8,1.2,1.7,1.6Z"/>
          <path class="cls-2" d="M175.9,61.1c2.2-3.6,3.3-7.5,3.3-11.5s-.2-3.9-.7-5.8c-.8-3.4-3-6.4-5.4-9.2-2.4-2.8-5.1-5.6-6.8-8.8-1.2-2.1-2-4.4-2-7v-.7c.2-3.8,1.4-6.9,3.6-9.4,1.8-2.1,4.2-3.9,7.2-5.8-7.2.1-12.9,2.2-17.5,6.7-2.5,2.4-3.9,4.9-4.9,7.4-1,2.5-1.4,5-1.6,7.6-.5,5.1-.3,10.3-2.7,15.1-1.2,2.4-4,4.1-7.5,4.1s-4.1-.5-6.3-1.7c.7,5.8,2.2,11.3,4.6,15.8,2.6,4.9,6.3,8.7,11.2,10.7,2.9,1.2,5.9,1.7,8.8,1.7,6.8,0,13-3.1,16.7-9.1Z"/>
          <path class="cls-2" d="M196.8,12c-1.4-1.1-3.1-2.6-4.9-3.7-1.8-1.1-3.7-2-5.3-2h0c-.7,0-1.4.2-2.1.5-.7.4-1.3,1-1.9,1.9-.7,1.1-.9,1.9-.9,2.7s.2,1.4.6,2c.4.7,1.1,1.3,1.8,1.9,1.5,1.2,3.6,2.3,5.4,3.3,1.2.7,2.4,1.3,3.4,2,4.3,3.3,8,6.9,10.9,11.5,2.3,3.7,4.1,8.1,5.3,13.4.2-2.1.4-4,.4-5.9,0-12.9-5.4-21.6-12.6-27.7Z"/>
        </g>
        <g>
          <path class="cls-1" d="M29.6,102h-11.4c-1.8,0-3.2-1.6-3.2-3.6s1.3-3.5,3.2-3.5h20.1v-9.4h-20.8c-6.7,0-11.6,5.8-11.6,13s4.8,12.9,11.6,12.9h4.9s6.5,0,6.5,0c1.8,0,3.2,1.6,3.2,3.5s-1.3,3.5-3.2,3.5H7.9v9.4h21.7c6.7,0,11.6-5.8,11.6-13s-4.8-13-11.6-13"/>
          <path class="cls-1" d="M131.2,102h-11.4c-1.8,0-3.2-1.6-3.2-3.6s1.3-3.5,3.2-3.5h20.1v-9.4h-20.8c-6.7,0-11.6,5.8-11.6,13s4.8,12.9,11.6,12.9h4.9s6.5,0,6.5,0c1.8,0,3.2,1.6,3.2,3.5s-1.3,3.5-3.2,3.5h-21.1v9.4h21.7c6.7,0,11.6-5.8,11.6-13s-4.8-13-11.6-13"/>
          <path class="cls-1" d="M244.9,107.8h0s-8.8,0-8.8,0c-1.5,0-2.6-1.3-2.6-2.9s1.1-2.9,2.6-2.9h16.1v-7.1h-16.3c-5.4,0-9.4,4.2-9.4,10s4,9.5,9.4,9.5h8.4c1.5,0,2.5,1.3,2.5,2.9s-1.1,2.9-2.6,2.9h-16v7.7h16.3c5.4,0,9.4-4.7,9.4-10.5s-3.8-9.3-9.1-9.5"/>
          <path class="cls-1" d="M60.3,127.9h7.9v-24.2c0-4.8-3.6-8.7-8.1-8.7h-15.9v7.8h12.9c1.9,0,3.4,1.6,3.4,3.6v.4h-9c-5.4,0-9.4,4.7-9.4,10.5s3.9,10.5,9.4,10.5h8.8M49.5,117.4c0-1.6,1.1-2.9,2.6-2.9h8.4v5.8h-8.4c-1.5,0-2.6-1.3-2.6-2.9"/>
          <path class="cls-1" d="M217.4,127.9h7.9v-24.2c0-4.8-3.7-8.7-8.1-8.7h-15.9v7.8h12.9c1.8,0,3.4,1.6,3.4,3.6v.4h-9c-5.4,0-9.4,4.7-9.4,10.5s3.9,10.5,9.4,10.5h8.8M206.6,117.4c0-1.6,1.1-2.9,2.6-2.9h8.4v5.8h-8.4c-1.5,0-2.6-1.3-2.6-2.9"/>
          <path class="cls-1" d="M301.9,127.9h7.9v-24.2c0-4.8-3.6-8.7-8.1-8.7h-15.9v7.8h12.9c1.9,0,3.4,1.6,3.4,3.6v.4h-9c-5.4,0-9.4,4.7-9.4,10.5s3.9,10.5,9.4,10.5h8.8M291.1,117.4c0-1.6,1.1-2.9,2.6-2.9h8.4v5.8h-8.4c-1.5,0-2.6-1.3-2.6-2.9"/>
          <path class="cls-1" d="M88.4,95h-9.8s-7.7,0-7.7,0v32.9h7.7v-25.1h6.8c1.9,0,3.4,1.6,3.4,3.6v21.5h7.7v-24.2c0-4.8-3.6-8.7-8.1-8.7"/>
          <path class="cls-1" d="M329.9,95h-9.8s-7.7,0-7.7,0v32.9h7.7v-25.1h6.8c1.8,0,3.4,1.6,3.4,3.6v21.5h7.7v-24.2c0-4.8-3.6-8.7-8.1-8.7"/>
          <path class="cls-1" d="M169.8,103.2c-.2-4.6-3.8-8.2-8.1-8.2h-9c-4.4,0-7.9,3.6-8.1,8.2h0s0,16.6,0,16.6h0c.2,4.5,3.8,8.2,8.1,8.2h16.5v-7.8h-13.5c-.6,0-1.1-.1-1.6-.4-1.2-.2-2.2-1.3-2.2-2.6v-2.6h11.6s6.3,0,6.3,0v-11.3h0M151.9,105.4c0-1.5,1.1-2.7,2.5-2.7h5.6c1.4,0,2.5,1.2,2.5,2.7v1h-10.6v-1Z"/>
          <path class="cls-1" d="M197.8,103.2c-.2-4.6-3.8-8.2-8.1-8.2h-9.5s0-9.7,0-9.7h-7.6v42.5h7.2c.3,0,.6,0,.9,0h9c4.4,0,7.9-3.6,8.1-8.2h0s0-.5,0-.5v-16s0,0,0,0M190.2,117.4c0,1.5-1.1,2.7-2.5,2.7h-7.5v-17.2h7.5c1.4,0,2.5,1.2,2.5,2.7v11.8Z"/>
          <path class="cls-1" d="M266,120.7c-2.3,0-2.7-1.5-2.7-3.3v-14.8h7.8v-7.6h-7.8v-9.5h-7.6v34.9h0c.2,4.2,3.5,7.6,7.5,7.6h7.9v-7.2h-5.2"/>
          <rect class="cls-1" x="273.6" y="94.9" width="8.3" height="32.9"/>
          <rect class="cls-1" x="273.6" y="85.4" width="8.3" height="7.6"/>
          <rect class="cls-1" x="285.8" y="89.7" width="17.7" height="3.3"/>
        </g>
      </g>
    </g>
  </g>
</svg>